<svg
    height="40pt"
    viewBox="0 0 408 408"
    width="40pt"
    xmlns="http://www.w3.org/2000/svg"
  >
    <path d="m364 116v192l-160 96v-192zm0 0" fill="#1995AD" />
    <path
      d="m204 408c-.679688 0-1.359375-.167969-1.96875-.511719-1.253906-.710937-2.03125-2.046875-2.03125-3.488281v-192c0-1.40625.734375-2.710938 1.945312-3.433594l160-96c1.238282-.75 2.78125-.757812 4.023438-.054687 1.253906.710937 2.03125 2.046875 2.03125 3.488281v192c0 1.40625-.734375 2.710938-1.945312 3.433594l-160 96c-.628907.382812-1.34375.566406-2.054688.566406zm4-193.734375v182.671875l152-91.203125v-182.671875zm0 0"
      fill="#263238"
    />
    <path d="m204 212-160-96 160-96 160 96zm0 0" fill="#f58f29" />
    <g fill="#263238">
      <path d="m204 216c-.710938 0-1.425781-.183594-2.054688-.566406l-160-96c-1.210937-.722656-1.945312-2.027344-1.945312-3.433594s.734375-2.710938 1.945312-3.433594l160-96c1.261719-.765625 2.839844-.765625 4.109376 0l160 96c1.210937.722656 1.945312 2.027344 1.945312 3.433594s-.734375 2.710938-1.945312 3.433594l-160 96c-.628907.382812-1.34375.566406-2.054688.566406zm-152.222656-100 152.222656 91.335938 152.222656-91.335938-152.222656-91.335938zm0 0" />
      <path d="m204 344c-.710938 0-1.425781-.183594-2.054688-.566406l-160-96c-1.898437-1.136719-2.511718-3.59375-1.378906-5.488282 1.144532-1.898437 3.617188-2.511718 5.488282-1.378906l157.945312 94.769532 157.945312-94.769532c1.871094-1.140625 4.34375-.519531 5.488282 1.378906 1.140625 1.886719.519531 4.351563-1.378906 5.488282l-160 96c-.628907.382812-1.34375.566406-2.054688.566406zm0 0" />
      <path d="m204 280c-.710938 0-1.425781-.183594-2.054688-.566406l-160-96c-1.898437-1.136719-2.511718-3.59375-1.378906-5.488282 1.144532-1.898437 3.617188-2.503906 5.488282-1.378906l157.945312 94.769532 157.945312-94.769532c1.871094-1.132812 4.34375-.519531 5.488282 1.378906 1.140625 1.886719.519531 4.351563-1.378906 5.488282l-160 96c-.628907.382812-1.34375.566406-2.054688.566406zm0 0" />
      <path d="m204 408c-.710938 0-1.425781-.183594-2.054688-.566406l-160-96c-1.210937-.722656-1.945312-2.027344-1.945312-3.433594v-192c0-1.441406.777344-2.777344 2.03125-3.488281 1.242188-.703125 2.792969-.695313 4.023438.054687l160 96c1.210937.722656 1.945312 2.027344 1.945312 3.433594v192c0 1.441406-.777344 2.777344-2.03125 3.488281-.609375.34375-1.289062.511719-1.96875.511719zm-156-102.265625 152 91.203125v-182.671875l-152-91.203125zm0 0" />
      <path d="m264 372c-2.207031 0-4-1.792969-4-4v-189.734375l-158.054688-94.832031c-1.898437-1.136719-2.511718-3.59375-1.378906-5.488282 1.144532-1.898437 3.617188-2.503906 5.488282-1.378906l160 96c1.210937.722656 1.945312 2.027344 1.945312 3.433594v192c0 2.207031-1.792969 4-4 4zm0 0" />
      <path d="m316 340.808594c-2.207031 0-4-1.792969-4-4v-189.730469l-158.054688-94.839844c-1.898437-1.132812-2.511718-3.589843-1.378906-5.484375 1.152344-1.898437 3.625-2.507812 5.488282-1.378906l160 96c1.210937.722656 1.945312 2.023438 1.945312 3.433594v191.992187c0 2.214844-1.792969 4.007813-4 4.007813zm0 0" />
      <path d="m144 372c-2.207031 0-4-1.792969-4-4v-192c0-1.40625.734375-2.710938 1.945312-3.433594l160-96c1.871094-1.132812 4.34375-.519531 5.488282 1.378906 1.140625 1.886719.519531 4.351563-1.378906 5.488282l-158.054688 94.832031v189.734375c0 2.207031-1.792969 4-4 4zm0 0" />
      <path d="m92 340.808594c-2.207031 0-4-1.792969-4-4v-191.992188c0-1.410156.734375-2.710937 1.945312-3.433594l160-96c1.878907-1.136718 4.34375-.519531 5.488282 1.378907 1.140625 1.886719.519531 4.351562-1.378906 5.484375l-158.054688 94.832031v189.730469c0 2.207031-1.792969 4-4 4zm0 0" />
      <path d="m20 24h-16c-2.207031 0-4-1.792969-4-4s1.792969-4 4-4h16c2.207031 0 4 1.792969 4 4s-1.792969 4-4 4zm0 0" />
      <path d="m128 24h-92c-2.207031 0-4-1.792969-4-4s1.792969-4 4-4h92c2.207031 0 4 1.792969 4 4s-1.792969 4-4 4zm0 0" />
      <path d="m404 408h-16c-2.207031 0-4-1.792969-4-4s1.792969-4 4-4h16c2.207031 0 4 1.792969 4 4s-1.792969 4-4 4zm0 0" />
      <path d="m372 408h-92c-2.207031 0-4-1.792969-4-4s1.792969-4 4-4h92c2.207031 0 4 1.792969 4 4s-1.792969 4-4 4zm0 0" />
      <path d="m300 24h-32c-2.207031 0-4-1.792969-4-4s1.792969-4 4-4h32c2.207031 0 4 1.792969 4 4s-1.792969 4-4 4zm0 0" />
      <path d="m284 40c-2.207031 0-4-1.792969-4-4v-32c0-2.207031 1.792969-4 4-4s4 1.792969 4 4v32c0 2.207031-1.792969 4-4 4zm0 0" />
      <path d="m356 56h-32c-2.207031 0-4-1.792969-4-4s1.792969-4 4-4h32c2.207031 0 4 1.792969 4 4s-1.792969 4-4 4zm0 0" />
      <path d="m340 72c-2.207031 0-4-1.792969-4-4v-32c0-2.207031 1.792969-4 4-4s4 1.792969 4 4v32c0 2.207031-1.792969 4-4 4zm0 0" />
    </g>
  </svg>